<svg width="80" height="80" viewBox="0 0 80 80" fill="none" xmlns="http://www.w3.org/2000/svg">
<g filter="url(#filter0_i_71_116)">
<circle cx="40" cy="40" r="40" fill="url(#paint0_linear_71_116)"/>
</g>
<path d="M51.4253 39.2369L34.092 27.2374C33.864 27.0801 33.6 27.0001 33.3333 27.0001C33.1213 27.0001 32.9093 27.0507 32.7147 27.1521C32.2747 27.3827 32 27.8374 32 28.3334L32 52.3324C32 52.8284 32.2747 53.283 32.7147 53.5137C33.1533 53.7457 33.684 53.711 34.092 53.4297L51.4253 41.4302C51.7853 41.1795 52 40.7702 52 40.3329C52 39.8956 51.7853 39.4862 51.4253 39.2369Z" fill="white"/>
<defs>
<filter id="filter0_i_71_116" x="0" y="0" width="84" height="92" filterUnits="userSpaceOnUse" color-interpolation-filters="sRGB">
<feFlood flood-opacity="0" result="BackgroundImageFix"/>
<feBlend mode="normal" in="SourceGraphic" in2="BackgroundImageFix" result="shape"/>
<feColorMatrix in="SourceAlpha" type="matrix" values="0 0 0 0 0 0 0 0 0 0 0 0 0 0 0 0 0 0 127 0" result="hardAlpha"/>
<feOffset dx="4" dy="12"/>
<feGaussianBlur stdDeviation="20"/>
<feComposite in2="hardAlpha" operator="arithmetic" k2="-1" k3="1"/>
<feColorMatrix type="matrix" values="0 0 0 0 0.696179 0 0 0 0 0.653698 0 0 0 0 0.9625 0 0 0 0.5 0"/>
<feBlend mode="normal" in2="shape" result="effect1_innerShadow_71_116"/>
</filter>
<linearGradient id="paint0_linear_71_116" x1="64" y1="4.5" x2="18" y2="74" gradientUnits="userSpaceOnUse">
<stop stop-color="#8673FD"/>
<stop offset="1" stop-color="#5C42FF"/>
</linearGradient>
</defs>
</svg>
