<svg width="34" height="26" viewBox="0 0 34 26" fill="none" xmlns="http://www.w3.org/2000/svg">
<path d="M33.2113 11.4725L16.9613 0.222473C16.7475 0.0749731 16.5 -2.63036e-05 16.25 -2.63254e-05C16.0513 -2.63428e-05 15.8525 0.047474 15.67 0.142474C15.2575 0.358724 15 0.784974 15 1.24997L15 23.75C15 24.215 15.2575 24.6412 15.67 24.8575C16.0812 25.075 16.5788 25.0425 16.9613 24.7787L33.2113 13.5287C33.5488 13.2937 33.75 12.91 33.75 12.5C33.75 12.09 33.5488 11.7062 33.2113 11.4725Z" fill="#090909"/>
<path d="M18.2113 11.9715L1.96125 0.721497C1.7475 0.573997 1.5 0.498997 1.25 0.498997C1.05125 0.498997 0.852501 0.546497 0.670001 0.641497C0.257501 0.857747 2.11703e-06 1.284 2.07638e-06 1.749L1.09366e-07 24.249C6.87144e-08 24.714 0.257499 25.1402 0.669999 25.3565C1.08125 25.574 1.57875 25.5415 1.96125 25.2777L18.2113 14.0277C18.5488 13.7927 18.75 13.409 18.75 12.999C18.75 12.589 18.5488 12.2052 18.2113 11.9715Z" fill="#090909"/>
</svg>
