<svg width="34" height="26" viewBox="0 0 34 26" fill="none" xmlns="http://www.w3.org/2000/svg">
<path d="M0.53875 14.0275L16.7887 25.2775C17.0025 25.425 17.25 25.5 17.5 25.5C17.6987 25.5 17.8975 25.4525 18.08 25.3575C18.4925 25.1413 18.75 24.715 18.75 24.25V1.75002C18.75 1.28502 18.4925 0.858775 18.08 0.642525C17.6688 0.425025 17.1712 0.457525 16.7887 0.721275L0.53875 11.9713C0.20125 12.2063 0 12.59 0 13C0 13.41 0.20125 13.7938 0.53875 14.0275Z" fill="#090909"/>
<path d="M15.5388 13.5285L31.7887 24.7785C32.0025 24.926 32.25 25.001 32.5 25.001C32.6987 25.001 32.8975 24.9535 33.08 24.8585C33.4925 24.6423 33.75 24.216 33.75 23.751V1.251C33.75 0.786001 33.4925 0.359751 33.08 0.143501C32.6688 -0.0739988 32.1712 -0.0414989 31.7887 0.222251L15.5388 11.4723C15.2013 11.7073 15 12.091 15 12.501C15 12.911 15.2013 13.2948 15.5388 13.5285Z" fill="#090909"/>
</svg>
