<svg width="23" height="28" viewBox="0 0 23 28" fill="none" xmlns="http://www.w3.org/2000/svg">
<path d="M14.9999 16C13.4228 16 11.9465 15.3826 10.8511 14.3346" stroke="#5C42FF" stroke-width="2" stroke-linecap="round" stroke-linejoin="round"/>
<path d="M6.15475 6.05196C4.78876 4.76008 2.95637 4 1 4" stroke="#5C42FF" stroke-width="2" stroke-linecap="round" stroke-linejoin="round"/>
<path d="M21.6432 17.0439C22.2699 16.6522 22.2699 15.7396 21.6432 15.3479L16.53 12.1521C15.864 11.7359 15 12.2147 15 13.0001V19.3916C15 20.1771 15.864 20.6559 16.53 20.2396L21.6432 17.0439Z" fill="#5C42FF"/>
<path d="M15 4V4C12.5778 4 10.3932 5.45643 9.46154 7.69231L7.92308 11.3846C6.75856 14.1795 4.02776 16 1 16V16" stroke="#5C42FF" stroke-width="2" stroke-linecap="round" stroke-linejoin="round"/>
<path d="M20.6432 5.04388C21.2699 4.65222 21.2699 3.73956 20.6432 3.34789L15.53 0.152135C14.864 -0.264145 14 0.214698 14 1.00013V7.39164C14 8.17707 14.864 8.65592 15.53 8.23964L20.6432 5.04388Z" fill="#5C42FF"/>
<circle cx="9" cy="26" r="2" fill="#5C42FF"/>
</svg>
